<?xml version="1.0" encoding="UTF-8" standalone="no"?>
<svg
   xmlns:dc="http://purl.org/dc/elements/1.1/"
   xmlns:cc="http://creativecommons.org/ns#"
   xmlns:rdf="http://www.w3.org/1999/02/22-rdf-syntax-ns#"
   xmlns:svg="http://www.w3.org/2000/svg"
   xmlns="http://www.w3.org/2000/svg"
   xmlns:sodipodi="http://sodipodi.sourceforge.net/DTD/sodipodi-0.dtd"
   xmlns:inkscape="http://www.inkscape.org/namespaces/inkscape"
   id="svg14"
   viewBox="0 0 182.85 191.76"
   version="1.1"
   sodipodi:docname="Gumball Machine Outline.svg"
   inkscape:version="0.92.4 (5da689c313, 2019-01-14)">
  <metadata
     id="metadata20">
    <rdf:RDF>
      <cc:Work
         rdf:about="">
        <dc:format>image/svg+xml</dc:format>
        <dc:type
           rdf:resource="http://purl.org/dc/dcmitype/StillImage" />
        <dc:title></dc:title>
      </cc:Work>
    </rdf:RDF>
  </metadata>
  <defs
     id="defs18" />
  <sodipodi:namedview
     pagecolor="#ffffff"
     bordercolor="#666666"
     borderopacity="1"
     objecttolerance="10"
     gridtolerance="10"
     guidetolerance="10"
     inkscape:pageopacity="0"
     inkscape:pageshadow="2"
     inkscape:window-width="1920"
     inkscape:window-height="1017"
     id="namedview16"
     showgrid="false"
     units="mm"
     inkscape:zoom="3.4809596"
     inkscape:cx="120.81956"
     inkscape:cy="92.342126"
     inkscape:window-x="-8"
     inkscape:window-y="-8"
     inkscape:window-maximized="1"
     inkscape:current-layer="svg217055" />
  <svg
     id="svg217055"
     viewBox="0 0 182.85 191.76"
     version="1.1">
    <g
       id="layer26"
       inkscape:export-xdpi="200.14301"
       inkscape:export-ydpi="200.14301"
       transform="matrix(1,0,0,0.98608104,0,2.2994404)">
      <g
         id="layer25">
        <g
           id="layer1">
          <path
             id="path21"
             d="m 182.78,182.56 c 0.42,0.43 -8.11,-27.91 -8.1,-28.72 H 7.58 c -0.24,1.47 -7.69,29 -7.58,29.32 6.86,13.68 176,13.67 182.85,0 z"
             transform="translate(0,-1.66)"
             inkscape:connector-curvature="0" />
        </g>
      </g>
      <g
         id="layer24">
        <g
           id="layer10">
          <path
             id="path27"
             d="m 89.55,4.66 c -31.42,0 -54.37,14.4 -57.22,32.78 l -14.4,114.82 c 0,2.63 40.2,-0.37 71.62,-0.37 31.42,0 71.63,1.8 71.63,0.37 L 146.78,37.44 C 141.9,18.09 121,4.66 89.55,4.66 Z"
             transform="translate(0,-1.66)"
             stroke-miterlimit="10"
             inkscape:connector-curvature="0"
             style="fill:none;stroke:#000000;stroke-width:10;stroke-miterlimit:10" />
        </g>
      </g>
      <path
         d="m 109.43,104.38 c -0.45,28.32 -35.56,28.31 -36,0 0.44,-28.32 35.57,-28.32 36,0 z"
         transform="translate(0,-1.66)"
         stroke-miterlimit="10"
         id="path8"
         inkscape:connector-curvature="0"
         style="fill:none;stroke:#000000;stroke-width:10;stroke-miterlimit:10" />
      <line
         x1="91.870003"
         y1="123.69"
         x2="91.870003"
         y2="149.92999"
         stroke-miterlimit="10"
         id="line10"
         style="fill:none;stroke:#000000;stroke-width:10;stroke-miterlimit:10" />
    </g>
  </svg>
</svg>
