<?xml version="1.0" standalone="no"?>
<!DOCTYPE svg PUBLIC "-//W3C//DTD SVG 20010904//EN"
 "http://www.w3.org/TR/2001/REC-SVG-20010904/DTD/svg10.dtd">
<svg version="1.0" xmlns="http://www.w3.org/2000/svg"
 width="526.000000pt" height="526.000000pt" viewBox="0 0 526.000000 526.000000"
 preserveAspectRatio="xMidYMid meet">
<metadata>
Created by potrace 1.11, written by Peter Selinger 2001-2013
</metadata>
<g transform="translate(0.000000,526.000000) scale(0.100000,-0.100000)"
fill="#000000" stroke="none">
<path d="M2378 5255 c-1 -1 -34 -6 -73 -9 -38 -4 -81 -8 -95 -11 -14 -2 -41
-6 -60 -9 -121 -18 -302 -67 -420 -112 -426 -166 -707 -463 -745 -789 -3 -27
-7 -61 -10 -75 -4 -23 -6 -42 -20 -160 -3 -25 -10 -79 -15 -120 -5 -41 -12
-99 -15 -129 -4 -30 -8 -61 -10 -70 -1 -9 -6 -45 -10 -81 -4 -36 -9 -72 -10
-80 -2 -8 -6 -42 -9 -75 -4 -33 -8 -71 -11 -85 -2 -14 -6 -45 -9 -70 -5 -42
-21 -169 -31 -250 -2 -19 -7 -57 -10 -85 -4 -27 -8 -61 -10 -75 -2 -14 -7 -50
-10 -80 -3 -30 -8 -66 -10 -80 -2 -14 -7 -50 -10 -80 -3 -30 -8 -66 -10 -80
-2 -14 -6 -50 -10 -80 -4 -30 -8 -66 -10 -80 -2 -14 -6 -50 -10 -80 -4 -30 -8
-66 -10 -80 -3 -14 -7 -50 -10 -80 -2 -30 -7 -66 -10 -80 -2 -14 -7 -47 -10
-75 -3 -27 -14 -122 -25 -210 -12 -88 -23 -180 -26 -205 -3 -25 -7 -56 -9 -70
-6 -37 -16 -121 -31 -255 -10 -87 -18 -101 -61 -115 -84 -28 -121 -52 -174
-118 -6 -8 -23 -11 -40 -8 -38 6 -39 3 -84 -174 -20 -80 -38 -152 -40 -160
-71 -275 -88 -340 -92 -365 -3 -16 -11 -38 -19 -49 -31 -45 -9 -79 81 -121 49
-22 164 -61 209 -69 11 -2 41 -9 66 -15 48 -11 62 -13 155 -29 97 -17 226 -36
325 -47 25 -3 68 -7 95 -11 28 -3 68 -7 90 -9 112 -9 214 -18 245 -20 19 -2
85 -7 145 -10 61 -4 133 -8 160 -10 380 -26 1459 -26 1915 0 177 10 281 17
315 20 22 2 72 7 110 10 70 6 97 9 210 20 144 15 168 18 348 45 363 55 597
138 597 213 0 15 -4 27 -9 27 -8 0 -13 14 -27 65 -11 41 -86 306 -93 330 -5
17 -29 100 -52 185 -23 85 -46 160 -51 167 -5 6 -20 10 -33 7 -17 -3 -27 2
-36 17 -27 51 -119 100 -259 140 -57 16 -59 17 -65 64 -7 58 -25 203 -31 255
-2 25 -6 56 -9 70 -6 43 -14 103 -20 155 -3 28 -7 61 -10 75 -2 14 -7 52 -10
85 -3 33 -8 67 -10 75 -2 8 -6 46 -10 83 -3 37 -8 76 -10 85 -4 21 -12 90 -21
167 -3 33 -8 68 -10 79 -2 10 -6 44 -9 75 -6 55 -8 67 -19 146 -7 48 -12 90
-26 210 -6 50 -13 101 -15 115 -5 35 -14 106 -20 165 -11 93 -16 130 -20 155
-2 14 -7 50 -10 81 -3 31 -7 65 -9 75 -2 11 -7 46 -10 79 -4 33 -9 71 -11 85
-2 14 -6 48 -10 75 -3 28 -8 66 -10 85 -13 102 -36 291 -41 330 -3 25 -7 56
-9 70 -2 14 -7 50 -10 80 -11 98 -62 237 -116 318 -16 24 -29 46 -29 49 0 13
-77 102 -148 171 -226 219 -531 349 -967 413 -71 10 -528 22 -537 14z"/>
</g>
</svg>
