<?xml version="1.0" standalone="no"?>
<!DOCTYPE svg PUBLIC "-//W3C//DTD SVG 20010904//EN"
 "http://www.w3.org/TR/2001/REC-SVG-20010904/DTD/svg10.dtd">
<svg version="1.0" xmlns="http://www.w3.org/2000/svg"
 width="128.000000pt" height="128.000000pt" viewBox="0 0 128.000000 128.000000"
 preserveAspectRatio="xMidYMid meet">
<metadata>
Created by potrace 1.11, written by Peter Selinger 2001-2013
</metadata>
<g transform="translate(0.000000,128.000000) scale(0.100000,-0.100000)"
fill="#000000" stroke="none">
<path d="M461 1050 c-79 -12 -138 -30 -154 -49 -15 -17 -26 -97 -52 -366 -4
-33 -8 -76 -10 -95 -2 -19 -7 -62 -10 -95 -9 -93 -10 -97 -28 -107 -11 -6 -17
-22 -17 -43 0 -25 -5 -35 -20 -40 -11 -3 -20 -9 -21 -13 0 -4 -2 -14 -4 -22
-1 -8 -6 -52 -9 -98 l-7 -82 511 0 511 0 -7 78 c-6 71 -10 107 -13 124 0 4 -9
9 -19 12 -11 4 -19 17 -20 38 -1 18 -10 39 -19 46 -18 13 -18 14 -28 105 -3
34 -8 85 -11 112 -3 28 -11 111 -20 185 -8 74 -17 160 -20 190 -3 30 -13 62
-21 71 -28 32 -138 52 -303 54 -85 1 -179 -1 -209 -5z"/>
</g>
</svg>
