<svg id="svg" version="1.1" xmlns="http://www.w3.org/2000/svg" xmlns:xlink="http://www.w3.org/1999/xlink" width="400" height="400" viewBox="0, 0, 400,400"><g id="svgg"><path id="path0" d="M163.020 278.500 C 162.840 279.084,161.749 291.825,161.102 300.906 C 160.550 308.650,161.538 310.350,167.410 311.758 C 176.097 313.840,186.193 314.572,201.600 314.237 C 216.239 313.918,222.531 312.992,228.228 310.317 C 231.873 308.606,231.887 308.286,229.415 283.486 C 228.787 277.190,229.274 277.538,223.685 279.380 C 212.033 283.221,192.769 284.846,182.200 282.879 C 177.163 281.941,173.879 281.130,168.738 279.553 C 162.989 277.789,163.227 277.833,163.020 278.500 M347.063 301.470 C 346.696 301.838,347.213 308.105,347.650 308.580 C 347.843 308.789,348.000 309.509,348.001 310.180 C 348.001 311.522,350.163 312.770,357.400 315.606 C 365.677 318.850,362.883 324.216,350.800 328.281 C 342.953 330.921,338.509 332.089,332.800 333.013 C 329.390 333.566,325.070 334.278,323.200 334.596 C 313.671 336.219,284.024 339.449,273.400 340.023 C 269.880 340.213,264.030 340.537,260.400 340.744 C 225.517 342.727,171.188 342.859,140.000 341.036 C 127.873 340.327,115.974 339.528,112.200 339.169 C 109.780 338.939,105.451 338.593,102.580 338.400 C 86.221 337.299,52.385 330.066,43.788 325.832 C 36.763 322.372,35.975 317.794,42.065 315.826 L 44.331 315.094 44.340 311.825 C 44.345 310.027,44.561 307.715,44.820 306.686 C 45.079 305.657,45.186 304.541,45.058 304.207 C 44.801 303.536,43.600 303.365,43.600 304.000 C 43.600 304.220,43.060 304.400,42.400 304.400 C 41.740 304.400,41.200 304.580,41.200 304.800 C 41.200 305.020,40.840 305.200,40.400 305.200 C 39.960 305.200,39.600 305.380,39.600 305.600 C 39.600 305.820,39.060 306.000,38.400 306.000 C 37.740 306.000,37.200 306.180,37.200 306.400 C 37.200 306.620,36.840 306.800,36.400 306.800 C 35.960 306.800,35.600 306.980,35.600 307.200 C 35.600 307.420,35.240 307.600,34.800 307.600 C 34.360 307.600,34.000 307.780,34.000 308.000 C 34.000 308.220,33.730 308.400,33.400 308.400 C 33.070 308.400,32.800 308.580,32.800 308.800 C 32.800 309.020,32.611 309.200,32.380 309.200 C 31.845 309.200,29.578 311.463,28.674 312.900 C 28.032 313.919,27.788 314.000,25.335 314.000 C 22.332 314.000,21.634 314.506,21.613 316.700 C 21.606 317.415,21.420 318.000,21.200 318.000 C 20.980 318.000,20.800 318.619,20.800 319.376 C 20.800 320.133,20.620 320.864,20.400 321.000 C 20.180 321.136,20.000 321.867,20.000 322.624 C 20.000 323.381,19.820 324.000,19.600 324.000 C 19.380 324.000,19.200 324.720,19.200 325.600 C 19.200 326.480,19.020 327.200,18.800 327.200 C 18.580 327.200,18.400 327.819,18.400 328.576 C 18.400 329.333,18.220 330.064,18.000 330.200 C 17.780 330.336,17.600 331.067,17.600 331.824 C 17.600 332.581,17.440 333.200,17.244 333.200 C 17.048 333.200,16.778 333.830,16.644 334.600 C 16.510 335.370,16.290 336.632,16.156 337.404 C 16.021 338.176,15.751 338.906,15.556 339.027 C 15.360 339.148,15.200 339.867,15.200 340.624 C 15.200 341.381,15.020 342.000,14.800 342.000 C 14.580 342.000,14.400 342.720,14.400 343.600 C 14.400 344.480,14.220 345.200,14.000 345.200 C 13.780 345.200,13.600 345.819,13.600 346.576 C 13.600 347.333,13.420 348.064,13.200 348.200 C 12.980 348.336,12.800 348.979,12.800 349.629 C 12.800 350.279,12.638 351.123,12.439 351.505 C 12.240 351.887,11.868 353.010,11.612 354.000 C 11.356 354.990,10.984 356.340,10.786 357.000 C 10.588 357.660,10.305 359.235,10.158 360.500 C 10.010 361.765,9.735 362.800,9.545 362.800 C 9.355 362.800,9.200 363.419,9.200 364.176 C 9.200 364.933,9.020 365.664,8.800 365.800 C 8.580 365.936,8.400 366.566,8.400 367.200 C 8.400 367.834,8.220 368.464,8.000 368.600 C 7.780 368.736,7.600 369.161,7.600 369.544 C 7.600 370.419,6.701 372.393,6.300 372.397 C 6.135 372.399,6.000 373.750,6.000 375.400 C 6.000 378.133,6.071 378.400,6.800 378.400 C 7.240 378.400,7.600 378.550,7.600 378.732 C 7.600 378.915,8.095 379.320,8.700 379.632 C 9.305 379.945,10.149 380.515,10.575 380.900 C 11.002 381.285,11.587 381.600,11.875 381.600 C 12.164 381.600,12.400 381.780,12.400 382.000 C 12.400 382.220,12.749 382.400,13.176 382.400 C 13.603 382.400,14.064 382.580,14.200 382.800 C 14.336 383.020,14.797 383.200,15.224 383.200 C 15.651 383.200,16.000 383.380,16.000 383.600 C 16.000 383.820,16.362 384.000,16.805 384.000 C 17.248 384.000,17.968 384.180,18.405 384.400 C 18.842 384.620,19.558 384.980,19.995 385.200 C 20.432 385.420,21.332 385.600,21.995 385.600 C 22.658 385.600,23.200 385.780,23.200 386.000 C 23.200 386.220,23.740 386.400,24.400 386.400 C 25.060 386.400,25.600 386.580,25.600 386.800 C 25.600 387.020,26.219 387.200,26.976 387.200 C 27.733 387.200,28.464 387.380,28.600 387.600 C 28.736 387.820,29.546 388.000,30.400 388.000 C 31.254 388.000,32.064 388.180,32.200 388.400 C 32.336 388.620,33.056 388.800,33.800 388.800 C 34.544 388.800,35.250 388.957,35.368 389.148 C 35.486 389.340,36.442 389.605,37.492 389.738 C 38.541 389.871,40.300 390.171,41.400 390.406 C 42.500 390.641,45.321 391.050,47.668 391.316 C 50.015 391.582,52.070 391.935,52.235 392.100 C 52.399 392.265,53.483 392.400,54.643 392.400 C 55.803 392.400,56.864 392.580,57.000 392.800 C 57.136 393.020,58.587 393.200,60.224 393.200 C 61.941 393.200,63.200 393.369,63.200 393.600 C 63.200 393.829,64.400 394.000,66.000 394.000 C 67.600 394.000,68.800 394.171,68.800 394.400 C 68.800 394.635,70.200 394.800,72.200 394.800 C 74.200 394.800,75.600 394.965,75.600 395.200 C 75.600 395.433,76.925 395.600,78.776 395.600 C 80.523 395.600,82.064 395.780,82.200 396.000 C 82.569 396.597,83.703 396.499,83.365 395.900 C 83.139 395.500,83.190 395.500,83.621 395.900 C 83.956 396.211,85.333 396.400,87.256 396.400 C 88.959 396.400,90.464 396.580,90.600 396.800 C 90.736 397.020,91.207 397.200,91.647 397.200 C 92.087 397.200,92.355 397.050,92.241 396.867 C 92.128 396.683,92.289 396.533,92.600 396.533 C 92.911 396.533,93.072 396.683,92.959 396.867 C 92.845 397.050,93.134 397.200,93.600 397.200 C 94.066 397.200,94.355 397.050,94.241 396.867 C 94.128 396.683,94.297 396.533,94.618 396.533 C 94.938 396.533,95.200 396.697,95.200 396.896 C 95.200 397.096,96.065 397.213,97.121 397.157 C 98.178 397.101,99.258 397.189,99.521 397.351 C 99.785 397.514,100.208 397.519,100.462 397.362 C 100.748 397.185,100.815 397.252,100.638 397.538 C 100.469 397.812,100.607 398.000,100.976 398.000 C 101.319 398.000,101.600 397.798,101.600 397.551 C 101.600 397.235,101.750 397.226,102.104 397.520 C 102.381 397.750,104.316 398.044,106.404 398.173 C 108.492 398.303,112.900 398.586,116.200 398.803 C 119.500 399.020,126.250 399.357,131.200 399.550 C 143.359 400.026,257.008 400.017,268.800 399.540 C 273.970 399.330,280.630 399.075,283.600 398.973 C 286.570 398.870,289.360 398.613,289.800 398.401 C 290.240 398.189,292.850 397.925,295.600 397.815 C 304.756 397.450,308.596 397.151,308.980 396.773 C 309.189 396.568,311.113 396.400,313.256 396.400 C 315.423 396.400,317.263 396.222,317.400 396.000 C 317.536 395.780,319.246 395.600,321.200 395.600 C 323.154 395.600,324.864 395.420,325.000 395.200 C 325.136 394.980,326.587 394.800,328.224 394.800 C 329.941 394.800,331.200 394.631,331.200 394.400 C 331.200 394.174,332.333 394.000,333.800 394.000 C 335.267 394.000,336.400 393.826,336.400 393.600 C 336.400 393.380,336.591 393.200,336.824 393.200 C 337.057 393.200,337.112 393.425,336.947 393.700 C 336.724 394.071,336.813 394.065,337.292 393.677 C 337.646 393.390,338.851 393.148,339.968 393.139 C 341.086 393.130,342.000 392.960,342.000 392.762 C 342.000 392.563,343.350 392.400,345.000 392.400 C 346.650 392.400,348.000 392.253,348.000 392.073 C 348.000 391.893,349.845 391.546,352.100 391.302 C 354.355 391.058,357.190 390.663,358.400 390.424 C 359.610 390.186,361.459 389.879,362.508 389.743 C 363.558 389.608,364.514 389.340,364.632 389.148 C 364.750 388.957,365.456 388.800,366.200 388.800 C 366.944 388.800,367.664 388.620,367.800 388.400 C 367.936 388.180,368.746 388.000,369.600 388.000 C 370.454 388.000,371.264 387.820,371.400 387.600 C 371.536 387.380,372.166 387.200,372.800 387.200 C 373.434 387.200,374.064 387.020,374.200 386.800 C 374.336 386.580,374.977 386.400,375.624 386.400 C 376.271 386.400,376.800 386.220,376.800 386.000 C 376.800 385.780,377.340 385.600,378.000 385.600 C 378.660 385.600,379.200 385.420,379.200 385.200 C 379.200 384.980,379.740 384.800,380.400 384.800 C 381.060 384.800,381.600 384.620,381.600 384.400 C 381.600 384.180,382.140 384.000,382.800 384.000 C 383.460 384.000,384.000 383.820,384.000 383.600 C 384.000 383.380,384.360 383.200,384.800 383.200 C 385.240 383.200,385.600 383.020,385.600 382.800 C 385.600 382.580,385.834 382.400,386.120 382.400 C 386.856 382.400,388.793 381.459,388.797 381.100 C 388.799 380.935,389.025 380.800,389.300 380.799 C 389.575 380.799,390.430 380.259,391.200 379.600 C 391.970 378.941,392.915 378.401,393.300 378.401 C 393.904 378.400,394.000 377.990,394.000 375.400 C 394.000 373.750,393.865 372.399,393.700 372.397 C 393.341 372.393,392.400 370.456,392.400 369.720 C 392.400 369.434,392.254 369.200,392.076 369.200 C 391.898 369.200,391.555 368.165,391.315 366.900 C 391.074 365.635,390.663 363.880,390.402 363.000 C 390.140 362.120,389.832 360.813,389.719 360.096 C 389.605 359.379,389.351 358.694,389.156 358.573 C 388.960 358.452,388.800 357.823,388.800 357.176 C 388.800 356.529,388.620 356.000,388.400 356.000 C 388.180 356.000,388.000 355.381,388.000 354.624 C 388.000 353.867,387.820 353.136,387.600 353.000 C 387.380 352.864,387.200 352.223,387.200 351.576 C 387.200 350.929,387.020 350.400,386.800 350.400 C 386.580 350.400,386.400 349.770,386.400 349.000 C 386.400 348.230,386.220 347.600,386.000 347.600 C 385.780 347.600,385.600 347.071,385.600 346.424 C 385.600 345.777,385.420 345.136,385.200 345.000 C 384.980 344.864,384.800 344.133,384.800 343.376 C 384.800 342.619,384.620 342.000,384.400 342.000 C 384.180 342.000,384.000 341.460,384.000 340.800 C 384.000 340.140,383.820 339.600,383.600 339.600 C 383.380 339.600,383.200 338.880,383.200 338.000 C 383.200 337.120,383.020 336.400,382.800 336.400 C 382.580 336.400,382.400 335.860,382.400 335.200 C 382.400 334.540,382.220 334.000,382.000 334.000 C 381.780 334.000,381.600 333.381,381.600 332.624 C 381.600 331.867,381.420 331.136,381.200 331.000 C 380.980 330.864,380.800 330.223,380.800 329.576 C 380.800 328.929,380.620 328.400,380.400 328.400 C 380.180 328.400,380.000 327.770,380.000 327.000 C 380.000 326.230,379.820 325.600,379.600 325.600 C 379.380 325.600,379.200 324.981,379.200 324.224 C 379.200 323.467,379.020 322.736,378.800 322.600 C 378.580 322.464,378.400 321.823,378.400 321.176 C 378.400 320.529,378.220 320.000,378.000 320.000 C 377.780 320.000,377.600 319.471,377.600 318.824 C 377.600 318.177,377.420 317.536,377.200 317.400 C 376.980 317.264,376.800 316.523,376.800 315.753 C 376.800 314.921,376.638 314.453,376.400 314.600 C 376.180 314.736,376.000 314.657,376.000 314.424 C 376.000 314.177,375.090 314.000,373.827 314.000 C 371.972 314.000,371.615 313.877,371.388 313.162 C 371.053 312.108,368.091 309.200,367.352 309.200 C 367.048 309.200,366.800 309.048,366.800 308.863 C 366.800 308.677,365.945 308.092,364.900 307.563 C 363.855 307.033,362.940 306.465,362.867 306.300 C 362.793 306.135,362.208 306.000,361.567 306.000 C 360.925 306.000,360.400 305.820,360.400 305.600 C 360.400 305.380,359.961 305.200,359.424 305.200 C 358.887 305.200,358.336 305.020,358.200 304.800 C 358.064 304.580,357.603 304.400,357.176 304.400 C 356.749 304.400,356.400 304.220,356.400 304.000 C 356.400 303.780,355.961 303.600,355.424 303.600 C 354.887 303.600,354.336 303.420,354.200 303.200 C 354.064 302.980,353.513 302.800,352.976 302.800 C 352.439 302.800,352.000 302.620,352.000 302.400 C 352.000 302.180,351.280 302.000,350.400 302.000 C 349.520 302.000,348.800 301.820,348.800 301.600 C 348.800 301.151,347.481 301.053,347.063 301.470 " stroke="none" fill="#221918" fill-rule="evenodd"></path><path id="path1" d="M192.472 31.783 C 189.230 33.252,195.027 35.220,198.840 33.945 C 200.764 33.302,201.082 32.911,200.310 32.139 C 199.378 31.207,194.257 30.974,192.472 31.783 M189.400 155.579 C 173.418 158.716,161.195 170.636,157.387 186.800 C 155.893 193.143,156.623 204.806,158.864 210.400 C 159.820 212.787,162.273 217.300,163.100 218.193 C 163.595 218.727,164.000 219.294,164.000 219.451 C 164.000 219.608,164.315 220.087,164.700 220.515 C 165.341 221.227,165.391 222.388,165.299 234.269 L 165.199 247.246 166.088 246.623 C 167.597 245.567,170.793 245.883,178.317 247.836 C 186.434 249.942,186.000 249.766,186.000 250.962 C 186.000 253.306,189.461 253.883,189.993 251.628 C 190.221 250.665,190.238 250.662,195.906 250.631 L 201.592 250.600 201.962 251.662 C 202.720 253.837,205.449 253.432,205.675 251.112 C 205.796 249.870,205.913 249.792,209.000 248.903 C 210.760 248.396,213.812 247.505,215.783 246.924 C 221.880 245.125,224.458 245.172,226.289 247.116 L 227.309 248.200 227.015 246.600 C 226.543 244.033,226.108 225.377,226.460 222.806 C 226.720 220.902,227.199 219.845,228.998 217.203 C 236.784 205.769,238.430 195.486,234.729 181.400 C 233.252 175.779,229.846 170.618,224.386 165.728 C 218.231 160.216,213.061 157.660,204.600 155.945 C 202.028 155.423,191.486 155.170,189.400 155.579 M240.704 334.306 C 240.991 334.503,222.906 334.695,198.904 334.750 C 175.637 334.804,155.430 335.004,154.000 335.196 C 152.570 335.387,149.847 335.539,147.949 335.532 C 142.155 335.512,135.841 336.130,124.800 337.799 C 119.194 338.646,119.112 338.732,123.876 338.768 C 126.126 338.786,128.064 338.979,128.200 339.200 C 128.344 339.433,130.596 339.600,133.600 339.600 C 136.604 339.600,138.856 339.767,139.000 340.000 C 139.149 340.241,141.930 340.400,146.000 340.400 C 150.070 340.400,152.851 340.559,153.000 340.800 C 153.153 341.048,156.796 341.200,162.600 341.200 C 168.404 341.200,172.047 341.352,172.200 341.600 C 172.361 341.860,181.996 342.000,199.800 342.000 C 217.604 342.000,227.239 341.860,227.400 341.600 C 227.554 341.351,231.263 341.200,237.200 341.200 C 243.137 341.200,246.846 341.049,247.000 340.800 C 247.149 340.559,249.937 340.400,254.024 340.400 C 258.275 340.400,260.800 340.251,260.800 340.000 C 260.800 339.753,262.859 339.600,266.176 339.600 C 269.329 339.600,271.655 339.435,271.800 339.200 C 271.938 338.977,273.804 338.800,276.024 338.800 C 280.568 338.800,281.311 338.241,277.300 337.841 C 275.815 337.692,272.530 337.231,270.000 336.815 C 265.286 336.040,262.054 335.746,254.000 335.361 C 251.470 335.240,248.230 334.963,246.800 334.745 C 242.588 334.102,240.153 333.927,240.704 334.306 " stroke="none" fill="#ecc396" fill-rule="evenodd"></path><path id="path2" d="M170.867 0.342 C 170.574 0.532,169.620 0.605,168.746 0.504 C 167.872 0.403,166.637 0.536,166.001 0.800 C 165.365 1.063,164.070 1.342,163.122 1.420 C 160.050 1.673,157.808 2.074,157.420 2.441 C 157.211 2.638,156.277 2.800,155.344 2.800 C 154.411 2.800,153.536 2.980,153.400 3.200 C 153.264 3.420,152.544 3.600,151.800 3.600 C 151.056 3.600,150.336 3.780,150.200 4.000 C 150.064 4.220,149.344 4.400,148.600 4.400 C 147.856 4.400,147.136 4.580,147.000 4.800 C 146.864 5.020,146.234 5.200,145.600 5.200 C 144.966 5.200,144.336 5.380,144.200 5.600 C 144.064 5.820,143.513 6.000,142.976 6.000 C 142.439 6.000,142.000 6.180,142.000 6.400 C 142.000 6.620,141.471 6.800,140.824 6.800 C 140.177 6.800,139.536 6.980,139.400 7.200 C 139.264 7.420,138.713 7.600,138.176 7.600 C 137.639 7.600,137.200 7.780,137.200 8.000 C 137.200 8.220,136.649 8.400,135.976 8.400 C 135.263 8.400,134.856 8.567,135.000 8.800 C 135.147 9.038,134.671 9.200,133.824 9.200 C 133.041 9.200,132.400 9.357,132.400 9.549 C 132.400 9.741,131.700 10.010,130.844 10.147 C 129.979 10.285,129.180 10.674,129.046 11.023 C 128.914 11.368,128.641 11.549,128.439 11.424 C 128.237 11.299,127.201 11.588,126.136 12.066 C 125.071 12.544,124.110 12.952,124.000 12.973 C 123.559 13.057,115.786 16.982,115.600 17.215 C 115.490 17.352,114.828 17.713,114.129 18.017 C 113.430 18.321,112.945 18.712,113.052 18.885 C 113.160 19.058,112.877 19.200,112.424 19.200 C 111.971 19.200,111.600 19.380,111.600 19.600 C 111.600 19.820,111.319 20.000,110.976 20.000 C 110.633 20.000,110.464 20.180,110.600 20.400 C 110.736 20.620,110.477 20.800,110.024 20.800 C 109.571 20.800,109.200 20.980,109.200 21.200 C 109.200 21.420,108.975 21.607,108.700 21.616 C 108.425 21.625,107.577 22.165,106.815 22.816 C 106.053 23.467,105.238 24.000,105.003 24.000 C 104.769 24.000,104.317 24.360,104.000 24.800 C 103.683 25.240,103.175 25.600,102.872 25.600 C 102.569 25.600,101.822 26.134,101.213 26.786 C 100.604 27.438,100.019 27.886,99.914 27.781 C 99.809 27.675,98.840 28.433,97.761 29.465 C 96.683 30.497,95.685 31.316,95.544 31.285 C 94.906 31.146,85.931 41.242,85.540 42.538 C 85.397 43.012,85.262 43.222,85.240 43.005 C 85.151 42.125,80.800 49.211,80.800 50.236 C 80.800 50.572,80.620 50.736,80.400 50.600 C 80.180 50.464,80.000 50.723,80.000 51.176 C 80.000 51.629,79.820 52.000,79.600 52.000 C 79.380 52.000,79.200 52.279,79.200 52.620 C 79.200 52.961,78.895 53.816,78.522 54.520 C 77.778 55.924,77.675 56.226,77.338 57.998 C 77.212 58.659,76.950 59.200,76.755 59.200 C 76.560 59.200,76.400 59.740,76.400 60.400 C 76.400 61.060,76.220 61.600,76.000 61.600 C 75.780 61.600,75.600 62.331,75.600 63.224 C 75.600 64.204,75.442 64.749,75.200 64.600 C 74.951 64.446,74.800 65.204,74.800 66.600 C 74.800 67.996,74.649 68.754,74.400 68.600 C 74.148 68.444,74.000 69.396,74.000 71.176 C 74.000 72.792,73.829 74.000,73.600 74.000 C 73.369 74.000,73.200 75.259,73.200 76.976 C 73.200 78.613,73.020 80.064,72.800 80.200 C 72.580 80.336,72.400 81.787,72.400 83.424 C 72.400 85.141,72.231 86.400,72.000 86.400 C 71.767 86.400,71.600 87.733,71.600 89.600 C 71.600 91.467,71.433 92.800,71.200 92.800 C 70.972 92.800,70.800 93.992,70.800 95.576 C 70.800 97.103,70.620 98.464,70.400 98.600 C 70.180 98.736,70.000 100.086,70.000 101.600 C 70.000 103.114,69.847 104.447,69.661 104.562 C 69.475 104.677,69.285 106.083,69.239 107.686 C 69.194 109.289,68.986 110.660,68.778 110.733 C 68.570 110.807,68.400 112.191,68.400 113.810 C 68.400 115.428,68.220 116.864,68.000 117.000 C 67.780 117.136,67.600 118.587,67.600 120.224 C 67.600 121.941,67.431 123.200,67.200 123.200 C 66.973 123.200,66.800 124.373,66.800 125.920 C 66.800 127.416,66.634 128.811,66.431 129.020 C 66.228 129.229,65.971 130.660,65.860 132.200 C 65.390 138.686,65.166 140.643,64.809 141.400 C 64.601 141.840,64.339 143.460,64.225 145.000 C 63.760 151.345,63.617 152.598,63.249 153.575 C 62.830 154.689,62.306 159.691,62.241 163.200 C 62.218 164.410,62.052 165.509,61.870 165.642 C 61.689 165.775,61.509 167.125,61.470 168.642 C 61.432 170.159,61.258 171.505,61.085 171.633 C 60.751 171.880,60.468 174.355,60.116 180.100 C 59.999 182.025,59.744 183.600,59.551 183.600 C 59.358 183.600,59.200 184.939,59.200 186.576 C 59.200 188.213,59.020 189.664,58.800 189.800 C 58.580 189.936,58.400 191.286,58.400 192.800 C 58.400 194.314,58.220 195.664,58.000 195.800 C 57.780 195.936,57.600 197.376,57.600 199.000 C 57.600 200.624,57.420 202.064,57.200 202.200 C 56.980 202.336,56.800 203.661,56.800 205.144 C 56.800 206.627,56.634 208.011,56.431 208.220 C 56.228 208.429,55.966 209.860,55.848 211.400 C 55.730 212.940,55.456 215.550,55.238 217.200 C 54.705 221.250,53.948 228.192,53.798 230.400 C 53.731 231.390,53.479 233.608,53.238 235.329 C 52.997 237.050,52.800 239.615,52.800 241.029 C 52.800 242.476,52.625 243.600,52.400 243.600 C 52.167 243.600,52.000 244.933,52.000 246.800 C 52.000 248.667,51.833 250.000,51.600 250.000 C 51.366 250.000,51.200 251.341,51.200 253.224 C 51.200 254.997,51.046 256.352,50.858 256.236 C 50.670 256.120,50.480 257.414,50.437 259.112 C 50.393 260.811,50.187 262.260,49.978 262.333 C 49.770 262.407,49.600 263.701,49.600 265.210 C 49.600 266.718,49.446 268.048,49.258 268.164 C 49.070 268.280,48.883 269.594,48.842 271.084 C 48.801 272.573,48.595 273.965,48.384 274.176 C 48.173 274.387,48.000 275.863,48.000 277.456 C 48.000 279.049,47.863 280.437,47.696 280.541 C 47.529 280.644,47.337 281.955,47.271 283.454 C 47.204 284.953,47.005 286.364,46.829 286.589 C 46.653 286.815,46.473 288.255,46.430 289.788 C 46.387 291.321,46.212 292.761,46.041 292.988 C 45.870 293.215,45.704 294.531,45.673 295.913 C 45.641 297.294,45.450 298.734,45.248 299.113 C 44.653 300.226,44.852 303.534,45.529 303.794 C 46.005 303.977,46.068 304.585,45.862 307.022 L 45.608 310.025 46.693 309.019 C 48.925 306.949,60.481 302.309,61.632 303.020 C 61.812 303.131,64.083 302.687,66.680 302.034 C 69.276 301.381,74.550 300.289,78.400 299.608 C 82.250 298.927,86.480 298.115,87.800 297.804 C 95.817 295.915,127.370 293.190,154.200 292.068 L 160.600 291.800 160.869 287.400 C 161.017 284.980,161.340 280.840,161.585 278.200 C 161.830 275.560,162.192 270.970,162.388 268.000 C 162.584 265.030,162.852 261.340,162.982 259.800 C 163.154 257.779,163.110 257.250,162.823 257.900 C 162.410 258.836,161.432 259.099,160.995 258.392 C 160.857 258.168,159.832 257.523,158.719 256.959 C 157.606 256.395,156.493 255.765,156.247 255.560 C 156.001 255.354,154.540 254.258,153.000 253.123 C 151.460 251.989,149.443 250.327,148.518 249.430 C 142.754 243.843,141.694 242.770,140.735 241.552 C 140.149 240.809,139.294 239.767,138.835 239.239 C 138.376 238.710,138.000 238.168,138.000 238.035 C 138.000 237.901,137.575 237.333,137.055 236.773 C 136.536 236.213,135.881 235.326,135.601 234.802 C 135.321 234.279,134.928 233.659,134.729 233.425 C 132.317 230.600,127.607 220.306,125.841 214.000 C 123.264 204.801,122.495 190.067,124.159 181.800 C 124.558 179.820,125.032 177.390,125.214 176.400 C 125.523 174.712,126.338 172.076,127.782 168.093 C 129.613 163.041,135.402 152.943,138.752 148.953 C 139.329 148.267,140.340 147.017,141.000 146.176 C 142.809 143.870,146.621 140.220,150.200 137.367 C 151.960 135.964,153.580 134.672,153.800 134.496 C 154.180 134.193,155.134 133.588,159.840 130.666 C 161.672 129.529,164.255 128.268,169.000 126.194 C 169.880 125.809,171.410 125.263,172.400 124.980 C 173.390 124.697,175.499 124.091,177.087 123.635 C 179.437 122.959,184.386 121.995,187.600 121.588 C 202.072 119.752,222.750 124.244,233.564 131.573 C 234.134 131.959,235.410 132.798,236.400 133.437 C 249.102 141.643,263.206 160.588,265.460 172.470 C 265.599 173.202,265.841 173.980,265.999 174.200 C 266.977 175.568,268.416 184.951,268.668 191.600 C 269.424 211.542,262.294 230.187,248.418 244.553 C 243.793 249.342,235.140 256.400,233.895 256.400 C 233.703 256.400,232.974 256.834,232.273 257.364 C 230.136 258.982,229.488 258.875,229.131 256.845 C 228.962 255.879,228.704 254.979,228.558 254.845 C 228.413 254.710,228.410 255.243,228.552 256.028 C 228.693 256.813,228.991 260.233,229.212 263.628 C 229.434 267.023,229.801 271.690,230.027 274.000 C 230.254 276.310,230.594 280.990,230.782 284.400 C 231.241 292.687,230.420 291.842,238.322 292.158 C 273.880 293.583,298.191 296.068,321.200 300.629 C 329.465 302.268,340.128 305.350,341.380 306.462 C 341.589 306.648,342.084 306.800,342.480 306.800 C 342.876 306.800,343.200 306.980,343.200 307.200 C 343.200 307.420,343.436 307.600,343.725 307.600 C 344.013 307.600,344.673 307.995,345.192 308.478 L 346.134 309.356 345.852 308.378 C 345.597 307.492,345.400 305.841,345.032 301.500 C 344.901 299.955,345.764 299.320,346.255 300.600 C 346.382 300.930,346.669 301.200,346.894 301.200 C 347.395 301.200,347.006 298.483,346.246 296.676 L 345.709 295.400 345.780 297.500 C 345.819 298.655,345.732 299.600,345.587 299.600 C 344.808 299.600,343.600 297.978,343.600 296.933 C 343.600 296.288,343.423 295.583,343.207 295.367 C 342.991 295.151,342.750 294.256,342.671 293.379 C 342.591 292.502,342.318 291.395,342.063 290.919 C 341.809 290.442,341.600 289.588,341.600 289.021 C 341.600 288.453,341.433 287.677,341.229 287.295 C 340.663 286.235,339.600 282.551,339.600 281.648 C 339.600 281.208,339.431 280.743,339.225 280.616 C 339.019 280.488,338.841 280.073,338.829 279.692 C 338.808 279.015,338.639 277.924,338.151 275.300 C 338.018 274.585,337.750 274.000,337.555 274.000 C 337.360 274.000,337.200 273.280,337.200 272.400 C 337.200 271.520,337.040 270.800,336.845 270.800 C 336.650 270.800,336.396 270.305,336.280 269.700 C 335.539 265.841,334.731 262.503,334.393 261.905 C 334.177 261.523,334.000 260.859,334.000 260.429 C 334.000 259.999,333.820 259.536,333.600 259.400 C 333.380 259.264,333.200 258.623,333.200 257.976 C 333.200 257.329,333.061 256.800,332.891 256.800 C 332.538 256.800,331.600 253.049,331.600 251.635 C 331.600 250.144,330.603 246.769,329.553 244.705 C 329.359 244.323,329.200 243.553,329.200 242.993 C 329.200 242.433,328.961 241.395,328.668 240.687 C 328.376 239.979,327.910 237.960,327.634 236.200 C 327.357 234.440,326.987 232.640,326.811 232.200 C 326.504 231.433,326.101 229.983,325.170 226.300 C 324.934 225.365,324.408 223.520,324.001 222.200 C 323.594 220.880,322.876 218.180,322.407 216.200 C 321.937 214.220,321.384 212.287,321.177 211.905 C 320.970 211.523,320.800 210.578,320.800 209.805 C 320.800 209.032,320.640 208.400,320.445 208.400 C 320.121 208.400,319.872 207.530,319.416 204.800 C 319.236 203.722,317.724 198.185,317.341 197.200 C 317.213 196.870,317.036 195.894,316.948 195.030 C 316.861 194.167,316.521 192.924,316.194 192.269 C 315.868 191.613,315.600 190.675,315.600 190.184 C 315.600 189.693,315.331 188.776,315.002 188.146 C 314.674 187.516,314.404 186.683,314.402 186.295 C 314.401 185.907,314.232 185.277,314.026 184.895 C 313.651 184.198,312.140 178.366,311.797 176.294 C 311.697 175.685,311.362 174.695,311.054 174.094 C 310.746 173.492,310.363 172.010,310.202 170.800 C 310.042 169.590,309.770 168.420,309.598 168.200 C 309.426 167.980,309.193 166.990,309.079 166.000 C 308.965 165.010,308.664 163.390,308.411 162.400 C 308.158 161.410,307.851 160.105,307.730 159.500 C 307.609 158.895,307.370 158.400,307.200 158.400 C 307.030 158.400,306.792 157.905,306.672 157.300 C 305.749 152.652,304.697 148.476,304.196 147.472 C 303.868 146.815,303.600 145.765,303.600 145.139 C 303.600 144.512,303.420 144.000,303.200 144.000 C 302.980 144.000,302.800 143.496,302.800 142.880 C 302.800 142.264,302.626 141.586,302.413 141.373 C 302.201 141.161,301.931 140.180,301.814 139.193 C 301.529 136.777,301.206 135.162,300.815 134.200 C 300.637 133.760,300.298 132.680,300.062 131.800 C 299.826 130.920,299.403 129.480,299.122 128.600 C 298.841 127.720,298.589 126.820,298.563 126.600 C 298.338 124.749,297.833 122.744,297.547 122.568 C 297.356 122.449,297.200 121.821,297.200 121.171 C 297.200 120.521,297.028 119.677,296.818 119.295 C 296.478 118.677,295.589 115.356,293.743 107.800 C 293.420 106.480,292.973 104.680,292.749 103.800 C 292.525 102.920,292.245 101.613,292.127 100.896 C 292.008 100.179,291.751 99.494,291.556 99.373 C 291.360 99.252,291.200 98.353,291.200 97.376 C 291.200 96.399,291.043 95.600,290.850 95.600 C 290.520 95.600,289.994 93.975,289.750 92.200 C 289.559 90.811,288.014 85.430,287.598 84.705 C 287.379 84.323,287.200 83.361,287.200 82.566 C 287.200 81.771,286.946 80.554,286.636 79.860 C 286.327 79.167,285.975 78.150,285.856 77.600 C 285.292 75.003,282.803 65.949,282.478 65.315 C 281.790 63.974,281.602 61.600,282.182 61.600 C 282.475 61.600,282.809 61.353,282.925 61.051 C 283.041 60.750,283.634 60.378,284.243 60.225 C 287.302 59.457,288.346 57.209,285.651 57.195 C 283.315 57.182,282.885 56.842,282.706 54.863 C 282.613 53.838,282.652 52.820,282.793 52.600 C 283.071 52.167,283.025 50.217,282.661 46.900 C 282.529 45.703,282.590 44.800,282.803 44.800 C 283.543 44.800,283.424 38.498,282.625 35.431 C 282.290 34.147,282.119 32.932,282.243 32.731 C 282.367 32.530,282.243 32.093,281.968 31.761 C 281.535 31.239,281.065 29.437,280.126 24.694 C 280.003 24.072,279.359 23.206,278.654 22.714 C 277.964 22.232,277.310 21.730,277.200 21.598 C 277.090 21.466,276.280 20.923,275.400 20.392 C 274.520 19.860,273.451 19.105,273.025 18.713 C 272.598 18.321,272.092 18.000,271.901 18.000 C 271.709 18.000,271.664 17.820,271.800 17.600 C 272.340 16.726,273.342 17.105,280.400 20.846 C 281.390 21.371,282.260 21.935,282.333 22.100 C 282.407 22.265,282.822 22.400,283.257 22.400 C 283.692 22.400,283.936 22.580,283.800 22.800 C 283.664 23.020,283.833 23.200,284.176 23.200 C 284.519 23.200,284.800 23.380,284.800 23.600 C 284.800 23.820,285.055 24.000,285.367 24.000 C 285.678 24.000,286.016 24.225,286.117 24.500 C 286.259 24.887,286.424 24.874,286.850 24.441 C 287.198 24.088,287.216 23.987,286.900 24.165 C 286.625 24.320,286.400 24.282,286.400 24.080 C 286.400 23.879,285.320 23.047,284.000 22.232 C 282.680 21.418,281.600 20.582,281.600 20.375 C 281.600 20.169,281.139 20.000,280.576 20.000 C 280.013 20.000,279.654 19.836,279.779 19.635 C 279.903 19.434,279.464 19.030,278.802 18.737 C 278.141 18.444,277.600 18.069,277.600 17.902 C 277.600 17.736,277.455 17.645,277.278 17.700 C 276.899 17.818,273.856 16.322,273.677 15.930 C 273.453 15.439,269.573 13.570,269.225 13.785 C 269.037 13.901,268.790 13.752,268.676 13.455 C 268.503 13.002,266.632 12.358,265.743 12.444 C 265.603 12.457,265.341 12.228,265.159 11.934 C 264.978 11.640,264.688 11.385,264.515 11.366 C 264.342 11.348,263.660 11.110,263.000 10.837 C 262.340 10.565,261.305 10.242,260.700 10.121 C 260.095 9.999,259.600 9.742,259.600 9.550 C 259.600 9.357,259.251 9.200,258.824 9.200 C 258.397 9.200,257.936 9.020,257.800 8.800 C 257.664 8.580,257.113 8.400,256.576 8.400 C 256.039 8.400,255.600 8.220,255.600 8.000 C 255.600 7.780,255.060 7.600,254.400 7.600 C 253.740 7.600,253.200 7.420,253.200 7.200 C 253.200 6.980,252.660 6.800,252.000 6.800 C 251.340 6.800,250.800 6.620,250.800 6.400 C 250.800 6.180,250.290 6.000,249.667 6.000 C 249.043 6.000,248.407 5.873,248.252 5.718 C 248.097 5.563,247.482 5.372,246.885 5.294 C 246.288 5.215,245.629 4.982,245.420 4.775 C 245.211 4.569,244.446 4.400,243.720 4.400 C 242.994 4.400,242.400 4.249,242.400 4.065 C 242.400 3.880,241.738 3.705,240.930 3.674 C 240.121 3.644,239.275 3.435,239.050 3.210 C 238.824 2.984,237.967 2.800,237.144 2.800 C 236.321 2.800,235.543 2.631,235.416 2.425 C 235.288 2.219,234.467 2.060,233.590 2.072 C 232.713 2.084,231.771 1.908,231.497 1.681 C 231.223 1.453,230.135 1.267,229.080 1.267 C 228.025 1.267,226.873 1.027,226.520 0.733 C 225.769 0.110,171.812 -0.269,170.867 0.342 M210.000 12.596 C 221.613 13.482,231.279 15.220,239.108 17.830 C 240.708 18.364,242.211 18.800,242.448 18.800 C 242.917 18.800,244.475 19.475,248.200 21.290 C 251.561 22.928,252.302 23.369,253.341 24.344 C 253.842 24.815,254.383 25.200,254.544 25.200 C 255.010 25.200,256.548 26.900,257.168 28.100 C 257.480 28.705,257.885 29.200,258.068 29.200 C 258.250 29.200,258.400 29.740,258.400 30.400 C 258.400 31.060,258.580 31.600,258.800 31.600 C 259.020 31.600,259.200 32.320,259.200 33.200 C 259.200 34.080,259.020 34.800,258.800 34.800 C 258.580 34.800,258.400 35.160,258.400 35.600 C 258.400 36.040,258.220 36.400,258.000 36.400 C 257.780 36.400,257.600 36.675,257.600 37.011 C 257.600 37.660,254.270 41.200,253.660 41.200 C 253.461 41.200,253.071 41.473,252.794 41.807 C 252.517 42.141,251.730 42.667,251.045 42.975 C 250.360 43.283,248.540 44.106,247.000 44.803 C 229.396 52.770,193.110 55.694,168.200 51.152 C 165.780 50.711,162.720 50.187,161.400 49.987 C 159.139 49.646,155.133 48.539,150.600 47.003 C 148.919 46.433,143.572 43.908,140.276 42.126 C 139.793 41.865,138.003 40.222,136.299 38.476 L 133.200 35.301 133.200 32.650 C 133.200 31.150,133.374 30.000,133.600 30.000 C 133.820 30.000,134.000 29.715,134.000 29.366 C 134.000 28.659,137.697 24.627,139.031 23.881 C 141.978 22.231,145.792 20.323,147.181 19.805 C 148.071 19.472,149.565 18.908,150.500 18.551 C 163.763 13.484,188.800 10.978,210.000 12.596 M287.200 25.120 C 287.200 25.541,288.069 26.400,288.494 26.400 C 288.678 26.400,288.635 26.040,288.400 25.600 C 287.977 24.810,287.200 24.499,287.200 25.120 M290.400 27.371 C 290.400 27.696,291.658 28.800,292.029 28.800 C 292.233 28.800,292.400 28.620,292.400 28.400 C 292.400 28.180,292.130 28.000,291.800 28.000 C 291.470 28.000,291.200 27.820,291.200 27.600 C 291.200 27.380,291.020 27.200,290.800 27.200 C 290.580 27.200,290.400 27.277,290.400 27.371 M292.800 29.186 C 292.800 29.398,293.205 29.784,293.700 30.044 C 294.595 30.514,294.596 30.512,293.838 29.658 C 292.991 28.705,292.800 28.618,292.800 29.186 M300.608 36.787 C 300.468 37.014,300.502 37.200,300.684 37.200 C 300.866 37.200,301.322 37.695,301.697 38.300 C 302.072 38.905,302.384 39.158,302.389 38.863 C 302.405 38.052,300.907 36.304,300.608 36.787 M303.816 40.773 C 303.671 41.008,303.754 41.200,304.000 41.200 C 304.246 41.200,304.358 41.344,304.249 41.520 C 304.141 41.696,304.409 42.063,304.845 42.335 C 305.679 42.856,305.669 42.831,304.161 40.473 C 304.117 40.404,303.961 40.539,303.816 40.773 M259.514 61.552 C 258.998 64.241,198.185 66.661,168.000 65.194 C 146.318 64.139,132.870 62.810,132.495 61.684 C 132.404 61.413,132.685 61.200,133.133 61.200 C 133.573 61.200,133.993 61.374,134.067 61.587 C 134.585 63.089,246.810 62.431,256.400 60.870 C 258.672 60.500,259.674 60.719,259.514 61.552 M318.406 75.433 C 318.409 76.295,318.570 77.249,318.763 77.554 C 318.978 77.893,319.032 77.349,318.904 76.154 C 318.642 73.717,318.398 73.364,318.406 75.433 M339.896 244.356 C 339.787 244.771,339.853 245.356,340.043 245.656 C 340.277 246.026,340.390 245.784,340.394 244.900 C 340.401 243.445,340.193 243.218,339.896 244.356 M340.685 250.405 C 340.853 251.047,340.785 251.238,340.460 251.037 C 340.125 250.830,340.135 251.063,340.497 251.866 L 341.000 252.982 341.129 251.640 C 341.200 250.902,341.075 250.115,340.852 249.892 C 340.576 249.616,340.522 249.781,340.685 250.405 M342.652 266.500 C 342.331 267.696,342.341 268.000,342.700 267.999 C 342.865 267.999,343.038 267.459,343.084 266.799 C 343.183 265.378,342.989 265.244,342.652 266.500 M342.400 268.976 C 342.400 269.293,342.580 269.664,342.800 269.800 C 343.020 269.936,343.200 269.677,343.200 269.224 C 343.200 268.771,343.020 268.400,342.800 268.400 C 342.580 268.400,342.400 268.659,342.400 268.976 M67.600 284.751 C 67.600 296.714,67.485 300.393,67.100 300.698 C 66.398 301.254,62.392 302.526,62.139 302.272 C 62.024 302.158,62.111 301.104,62.332 299.932 C 62.553 298.759,62.939 296.360,63.190 294.600 C 63.441 292.840,63.807 290.770,64.003 290.000 C 64.199 289.230,64.457 287.700,64.577 286.600 C 64.697 285.500,64.993 283.340,65.235 281.800 C 66.064 276.509,66.438 273.796,66.654 271.500 C 67.236 265.331,67.600 270.435,67.600 284.751 M343.125 274.100 C 342.953 275.283,343.220 277.200,343.557 277.200 C 343.703 277.200,343.818 276.300,343.813 275.200 C 343.802 273.166,343.363 272.463,343.125 274.100 M343.953 278.645 C 343.810 279.727,344.167 284.037,344.365 283.600 C 344.414 283.490,344.517 282.322,344.593 281.004 C 344.741 278.449,344.230 276.565,343.953 278.645 M344.593 285.100 C 344.678 286.874,345.572 288.162,345.588 286.533 C 345.601 285.122,345.265 284.000,344.828 284.000 C 344.670 284.000,344.564 284.495,344.593 285.100 M345.481 290.669 C 345.113 291.265,345.641 295.222,346.055 294.966 C 346.472 294.708,346.463 292.104,346.041 291.027 C 345.865 290.578,345.630 290.428,345.481 290.669 " stroke="none" fill="#ea2322" fill-rule="evenodd"></path><path id="path3" d="M310.000 56.000 C 310.000 56.440,310.230 56.800,310.511 56.800 C 310.838 56.800,311.036 57.410,311.063 58.500 C 311.105 60.181,311.815 63.851,312.399 65.400 C 312.565 65.840,313.013 67.280,313.395 68.600 C 313.777 69.920,314.270 71.223,314.490 71.495 C 314.710 71.767,314.794 72.240,314.676 72.545 C 314.559 72.851,314.726 73.606,315.046 74.224 C 315.367 74.842,315.540 75.578,315.432 75.861 C 315.324 76.143,315.407 76.481,315.617 76.611 C 315.828 76.741,316.028 76.522,316.063 76.124 C 316.259 73.858,316.315 73.363,316.416 73.000 C 316.562 72.474,315.967 71.073,315.452 70.729 C 315.180 70.547,315.199 70.120,315.508 69.441 C 315.900 68.581,315.858 68.346,315.230 67.906 C 314.748 67.569,314.531 67.005,314.610 66.294 C 314.690 65.562,314.543 65.200,314.165 65.200 C 313.523 65.200,313.407 64.567,313.983 64.211 C 314.518 63.880,314.034 62.800,313.350 62.800 C 312.947 62.800,312.857 62.513,313.035 61.804 C 313.214 61.089,313.100 60.736,312.631 60.556 C 312.206 60.394,312.060 60.041,312.215 59.553 C 312.382 59.025,312.258 58.800,311.800 58.800 C 311.341 58.800,311.218 58.575,311.385 58.046 C 311.642 57.237,310.891 55.200,310.336 55.200 C 310.151 55.200,310.000 55.560,310.000 56.000 M316.071 78.426 C 316.243 80.177,317.154 80.478,317.066 78.755 C 317.030 78.046,316.762 77.386,316.471 77.290 C 316.090 77.163,315.979 77.478,316.071 78.426 M226.400 255.712 C 218.351 264.403,175.941 264.440,165.631 255.765 C 163.802 254.225,163.890 253.790,162.792 269.800 C 162.565 273.100,162.306 276.070,162.215 276.400 C 162.124 276.730,161.843 280.330,161.589 284.400 C 161.336 288.470,161.006 291.929,160.857 292.088 C 160.707 292.246,154.918 292.652,147.992 292.991 C 126.304 294.050,109.012 295.510,93.400 297.599 C 91.860 297.805,90.279 297.980,89.887 297.987 C 85.246 298.072,99.362 313.802,111.195 321.730 L 113.389 323.200 111.524 323.200 C 109.784 323.200,108.108 323.020,100.400 322.002 C 98.750 321.784,95.060 321.331,92.200 320.994 C 64.752 317.764,61.600 316.330,61.600 307.077 C 61.600 303.442,61.586 303.429,58.357 304.364 C 52.832 305.963,48.249 308.147,46.638 309.948 C 45.333 311.407,45.105 310.977,45.339 307.500 L 45.561 304.200 45.005 307.000 C 43.901 312.563,44.323 314.521,47.101 316.722 C 50.742 319.605,59.754 322.569,72.200 324.977 C 73.960 325.317,76.300 325.770,77.400 325.984 C 79.340 326.360,87.297 327.530,93.783 328.392 C 96.811 328.794,103.428 329.513,112.200 330.392 C 203.339 339.527,340.595 329.947,347.205 313.989 C 347.734 312.710,347.144 304.868,346.333 302.400 C 346.114 301.733,346.074 302.066,346.214 303.400 C 347.192 312.726,346.969 314.048,344.027 316.379 C 341.751 318.182,332.830 321.562,330.271 321.592 C 329.328 321.602,327.996 320.335,328.704 320.099 C 329.293 319.902,329.378 318.400,328.800 318.400 C 328.580 318.400,328.400 317.680,328.400 316.800 C 328.400 315.920,328.220 315.200,328.000 315.200 C 327.780 315.200,327.600 314.675,327.600 314.033 C 327.600 313.392,327.375 312.762,327.100 312.633 C 326.700 312.447,326.700 312.353,327.100 312.167 C 327.375 312.038,327.600 311.689,327.600 311.390 C 327.600 310.582,326.762 310.216,326.361 310.849 C 326.126 311.220,326.010 310.910,326.006 309.900 C 326.003 309.075,325.841 308.400,325.646 308.400 C 325.020 308.400,324.657 303.936,325.253 303.567 C 326.030 303.087,325.793 302.991,321.000 301.830 C 302.887 297.445,278.870 294.616,247.800 293.207 C 235.434 292.646,231.211 292.342,230.998 291.996 C 230.896 291.832,230.632 288.930,230.411 285.549 C 230.190 282.167,229.832 277.420,229.615 275.000 C 229.399 272.580,229.020 267.900,228.773 264.600 C 228.527 261.300,228.207 257.610,228.062 256.400 L 227.800 254.200 226.400 255.712 M168.738 279.553 C 179.764 282.935,183.035 283.400,195.800 283.399 C 205.286 283.398,207.184 283.289,211.400 282.502 C 217.614 281.343,218.131 281.211,223.685 279.380 C 229.274 277.538,228.787 277.190,229.415 283.486 C 231.537 304.776,231.630 307.478,230.281 308.817 C 227.998 311.084,224.211 312.279,215.200 313.575 C 205.255 315.004,179.324 314.341,170.400 312.429 C 161.322 310.484,160.493 309.456,161.102 300.906 C 161.749 291.825,162.840 279.084,163.020 278.500 C 163.227 277.833,162.989 277.789,168.738 279.553 " stroke="none" fill="#86100c" fill-rule="evenodd"></path><path id="path4" d="M191.100 31.557 C 190.715 31.947,190.400 32.578,190.400 32.957 C 190.400 33.377,190.219 33.535,189.938 33.362 C 189.643 33.179,189.585 33.253,189.779 33.565 C 189.945 33.834,190.311 33.966,190.593 33.858 C 190.875 33.750,191.801 33.910,192.652 34.213 C 193.504 34.517,194.560 34.761,195.000 34.756 C 195.440 34.751,195.029 34.506,194.087 34.212 C 193.145 33.918,192.139 33.481,191.851 33.242 C 191.562 33.003,191.208 32.925,191.063 33.070 C 190.918 33.215,190.800 33.023,190.800 32.643 C 190.800 32.263,190.935 32.028,191.100 32.121 C 191.265 32.213,191.940 32.052,192.600 31.762 C 193.260 31.473,193.590 31.228,193.333 31.218 C 193.076 31.208,192.626 31.120,192.333 31.023 C 192.040 30.926,191.485 31.166,191.100 31.557 M195.100 31.082 C 195.595 31.178,196.405 31.178,196.900 31.082 C 197.395 30.987,196.990 30.909,196.000 30.909 C 195.010 30.909,194.605 30.987,195.100 31.082 M201.396 32.007 C 201.258 32.230,201.022 32.337,200.872 32.245 C 200.723 32.152,200.576 32.471,200.548 32.953 C 200.513 33.525,200.727 33.829,201.163 33.829 C 201.631 33.829,201.827 33.494,201.817 32.714 C 201.800 31.481,201.761 31.416,201.396 32.007 M257.200 60.833 C 256.650 60.991,254.400 61.141,252.200 61.165 C 250.000 61.190,242.440 61.480,235.400 61.808 C 215.029 62.760,134.000 62.546,134.000 61.541 C 134.000 61.353,133.625 61.200,133.167 61.200 C 132.692 61.200,132.403 61.409,132.495 61.684 C 132.870 62.810,146.318 64.139,168.000 65.194 C 198.185 66.661,258.998 64.241,259.514 61.552 C 259.664 60.773,258.581 60.436,257.200 60.833 M188.419 121.586 C 188.100 121.785,187.696 121.859,187.522 121.752 C 187.067 121.471,180.476 122.660,177.087 123.635 C 175.499 124.091,173.390 124.697,172.400 124.980 C 171.410 125.263,169.880 125.809,169.000 126.194 C 164.255 128.268,161.672 129.529,159.840 130.666 C 155.134 133.588,154.180 134.193,153.800 134.496 C 153.580 134.672,151.960 135.964,150.200 137.367 C 146.621 140.220,142.809 143.870,141.000 146.176 C 140.340 147.017,139.329 148.267,138.752 148.953 C 135.402 152.943,129.613 163.041,127.782 168.093 C 126.338 172.076,125.523 174.712,125.214 176.400 C 125.032 177.390,124.558 179.820,124.159 181.800 C 122.495 190.067,123.264 204.801,125.841 214.000 C 127.607 220.306,132.317 230.600,134.729 233.425 C 134.928 233.659,135.321 234.279,135.601 234.802 C 135.881 235.326,136.536 236.213,137.055 236.773 C 137.575 237.333,138.000 237.901,138.000 238.035 C 138.000 238.168,138.376 238.710,138.835 239.239 C 139.294 239.767,140.149 240.809,140.735 241.552 C 141.694 242.770,142.754 243.843,148.518 249.430 C 149.443 250.327,151.460 251.989,153.000 253.123 C 154.540 254.258,156.001 255.354,156.247 255.560 C 156.493 255.765,157.573 256.400,158.647 256.970 C 159.721 257.540,160.910 258.226,161.289 258.495 C 162.373 259.261,162.840 258.427,163.219 255.053 C 163.406 253.388,163.748 251.671,163.979 251.239 C 164.211 250.806,164.400 250.027,164.400 249.506 C 164.400 248.986,164.578 248.382,164.795 248.165 C 165.596 247.364,165.507 221.411,164.700 220.515 C 164.315 220.087,164.000 219.608,164.000 219.451 C 164.000 219.294,163.595 218.727,163.100 218.193 C 162.273 217.300,159.820 212.787,158.864 210.400 C 155.743 202.610,155.846 189.637,159.095 181.200 C 166.838 161.100,186.322 151.397,208.200 156.746 C 220.140 159.665,231.887 170.582,234.729 181.400 C 238.417 195.437,236.777 205.778,229.070 217.097 C 227.890 218.829,226.782 220.777,226.607 221.424 C 225.814 224.352,226.701 248.807,227.635 249.780 C 227.836 249.989,228.000 250.832,228.000 251.654 C 228.000 252.476,228.195 253.655,228.433 254.274 C 228.672 254.893,228.995 256.120,229.153 257.000 C 229.487 258.864,230.185 258.945,232.273 257.364 C 232.974 256.834,233.703 256.400,233.895 256.400 C 235.140 256.400,243.793 249.342,248.418 244.553 C 254.186 238.581,257.300 234.183,261.028 226.743 C 266.709 215.408,269.146 204.198,268.668 191.600 C 268.416 184.951,266.977 175.568,265.999 174.200 C 265.841 173.980,265.599 173.202,265.460 172.470 C 263.206 160.588,249.102 141.643,236.400 133.437 C 235.410 132.798,234.134 131.959,233.564 131.573 C 227.267 127.306,215.327 123.144,205.600 121.826 C 200.904 121.190,189.317 121.028,188.419 121.586 " stroke="none" fill="#f17140" fill-rule="evenodd"></path><path id="path5" d="M271.800 17.600 C 271.664 17.820,271.709 18.000,271.901 18.000 C 272.092 18.000,272.598 18.321,273.025 18.713 C 273.451 19.105,274.520 19.860,275.400 20.392 C 276.280 20.923,277.090 21.466,277.200 21.598 C 277.310 21.730,277.964 22.232,278.654 22.714 C 279.359 23.206,280.003 24.072,280.126 24.694 C 281.065 29.437,281.535 31.239,281.968 31.761 C 282.243 32.093,282.367 32.530,282.243 32.731 C 282.119 32.932,282.290 34.147,282.625 35.431 C 283.424 38.498,283.543 44.800,282.803 44.800 C 282.590 44.800,282.529 45.703,282.661 46.900 C 283.025 50.217,283.071 52.167,282.793 52.600 C 282.652 52.820,282.613 53.838,282.706 54.863 C 282.885 56.842,283.315 57.182,285.651 57.195 C 288.346 57.209,287.302 59.457,284.243 60.225 C 283.634 60.378,283.041 60.750,282.925 61.051 C 282.809 61.353,282.475 61.600,282.182 61.600 C 281.602 61.600,281.790 63.974,282.478 65.315 C 282.803 65.949,285.292 75.003,285.856 77.600 C 285.975 78.150,286.327 79.167,286.636 79.860 C 286.946 80.554,287.200 81.771,287.200 82.566 C 287.200 83.361,287.379 84.323,287.598 84.705 C 288.014 85.430,289.559 90.811,289.750 92.200 C 289.994 93.975,290.520 95.600,290.850 95.600 C 291.043 95.600,291.200 96.399,291.200 97.376 C 291.200 98.353,291.360 99.252,291.556 99.373 C 291.751 99.494,292.008 100.179,292.127 100.896 C 292.245 101.613,292.525 102.920,292.749 103.800 C 292.973 104.680,293.420 106.480,293.743 107.800 C 295.589 115.356,296.478 118.677,296.818 119.295 C 297.028 119.677,297.200 120.521,297.200 121.171 C 297.200 121.821,297.356 122.449,297.547 122.568 C 297.833 122.744,298.338 124.749,298.563 126.600 C 298.589 126.820,298.811 127.630,299.056 128.400 C 299.301 129.170,299.724 130.610,299.996 131.600 C 300.268 132.590,300.637 133.760,300.815 134.200 C 301.206 135.162,301.529 136.777,301.814 139.193 C 301.931 140.180,302.201 141.161,302.413 141.373 C 302.626 141.586,302.800 142.264,302.800 142.880 C 302.800 143.496,302.980 144.000,303.200 144.000 C 303.420 144.000,303.600 144.512,303.600 145.139 C 303.600 145.765,303.868 146.815,304.196 147.472 C 304.697 148.476,305.749 152.652,306.672 157.300 C 306.792 157.905,307.030 158.400,307.200 158.400 C 307.370 158.400,307.609 158.895,307.730 159.500 C 307.851 160.105,308.158 161.410,308.411 162.400 C 308.664 163.390,308.965 165.010,309.079 166.000 C 309.193 166.990,309.426 167.980,309.598 168.200 C 309.770 168.420,310.042 169.590,310.202 170.800 C 310.363 172.010,310.746 173.492,311.054 174.094 C 311.362 174.695,311.697 175.685,311.797 176.294 C 312.140 178.366,313.651 184.198,314.026 184.895 C 314.232 185.277,314.401 185.907,314.402 186.295 C 314.404 186.683,314.674 187.516,315.002 188.146 C 315.331 188.776,315.600 189.693,315.600 190.184 C 315.600 190.675,315.868 191.613,316.194 192.269 C 316.521 192.924,316.861 194.167,316.948 195.030 C 317.036 195.894,317.213 196.870,317.341 197.200 C 317.724 198.185,319.236 203.722,319.416 204.800 C 319.872 207.530,320.121 208.400,320.445 208.400 C 320.640 208.400,320.800 209.032,320.800 209.805 C 320.800 210.578,320.970 211.523,321.177 211.905 C 321.384 212.287,321.937 214.220,322.407 216.200 C 322.876 218.180,323.594 220.880,324.001 222.200 C 324.408 223.520,324.934 225.365,325.170 226.300 C 326.101 229.983,326.504 231.433,326.811 232.200 C 326.987 232.640,327.357 234.440,327.634 236.200 C 327.910 237.960,328.376 239.979,328.668 240.687 C 328.961 241.395,329.200 242.433,329.200 242.993 C 329.200 243.553,329.359 244.323,329.553 244.705 C 330.603 246.769,331.600 250.144,331.600 251.635 C 331.600 253.049,332.538 256.800,332.891 256.800 C 333.061 256.800,333.200 257.329,333.200 257.976 C 333.200 258.623,333.380 259.264,333.600 259.400 C 333.820 259.536,334.000 259.999,334.000 260.429 C 334.000 260.859,334.177 261.523,334.393 261.905 C 334.731 262.503,335.539 265.841,336.280 269.700 C 336.396 270.305,336.650 270.800,336.845 270.800 C 337.040 270.800,337.200 271.520,337.200 272.400 C 337.200 273.280,337.360 274.000,337.555 274.000 C 337.750 274.000,338.018 274.585,338.151 275.300 C 338.639 277.924,338.808 279.015,338.829 279.692 C 338.841 280.073,339.019 280.488,339.225 280.616 C 339.431 280.743,339.600 281.208,339.600 281.648 C 339.600 282.551,340.663 286.235,341.229 287.295 C 341.433 287.677,341.600 288.453,341.600 289.021 C 341.600 289.588,341.809 290.442,342.063 290.919 C 342.318 291.395,342.591 292.502,342.671 293.379 C 342.750 294.256,342.991 295.151,343.207 295.367 C 343.423 295.583,343.600 296.288,343.600 296.933 C 343.600 297.636,343.945 298.406,344.461 298.853 C 345.638 299.874,345.817 299.804,345.873 298.300 C 345.900 297.585,346.056 296.478,346.219 295.841 C 346.431 295.012,346.385 294.762,346.058 294.964 C 345.587 295.255,345.424 293.999,345.478 290.500 C 345.493 289.565,345.346 288.800,345.152 288.800 C 344.959 288.800,344.800 288.609,344.800 288.376 C 344.800 288.143,344.980 288.064,345.200 288.200 C 345.762 288.547,345.698 287.925,345.075 286.989 C 344.787 286.555,344.585 285.528,344.627 284.706 C 344.670 283.884,344.546 283.310,344.352 283.430 C 344.016 283.637,343.827 281.108,343.993 278.646 C 344.036 278.011,343.881 277.374,343.649 277.230 C 343.222 276.967,343.162 276.336,343.196 272.506 C 343.206 271.355,342.986 270.044,342.707 269.594 C 342.286 268.915,342.302 268.711,342.800 268.394 C 343.199 268.140,343.232 268.010,342.900 268.006 C 342.625 268.003,342.403 267.685,342.406 267.300 C 342.411 266.702,342.469 266.687,342.800 267.200 C 343.033 267.561,343.190 267.610,343.194 267.324 C 343.197 267.062,343.020 266.736,342.800 266.600 C 342.580 266.464,342.400 265.823,342.400 265.176 C 342.400 264.529,342.198 264.000,341.951 264.000 C 341.641 264.000,341.656 263.815,342.000 263.400 C 342.344 262.985,342.359 262.800,342.049 262.800 C 341.802 262.800,341.600 262.519,341.600 262.176 C 341.600 261.833,341.780 261.664,342.000 261.800 C 342.542 262.135,342.511 260.671,341.965 260.125 C 341.725 259.885,341.517 258.866,341.501 257.860 C 341.483 256.662,341.323 256.115,341.037 256.274 C 340.797 256.408,340.825 256.275,341.100 255.979 C 341.709 255.322,341.760 254.000,341.176 254.000 C 340.943 254.000,340.861 253.825,340.993 253.612 C 341.125 253.398,340.940 252.658,340.583 251.968 C 340.226 251.277,340.109 250.820,340.324 250.953 C 340.554 251.095,340.699 250.539,340.678 249.597 C 340.659 248.719,340.537 248.000,340.407 248.000 C 340.278 248.000,340.155 247.685,340.134 247.300 C 339.861 242.206,339.484 238.976,339.137 238.761 C 338.855 238.587,338.896 238.422,339.255 238.279 C 339.605 238.139,339.657 237.942,339.400 237.730 C 338.986 237.388,338.906 236.851,338.740 233.300 C 338.685 232.145,338.533 231.200,338.401 231.200 C 338.269 231.200,338.116 229.903,338.061 228.318 C 338.007 226.733,337.815 225.248,337.636 225.018 C 337.456 224.788,337.297 224.330,337.282 224.000 C 337.266 223.670,337.227 222.500,337.194 221.400 C 337.161 220.300,336.962 218.726,336.752 217.901 C 336.542 217.077,336.358 215.413,336.344 214.203 C 336.329 212.994,336.180 212.089,336.011 212.193 C 335.843 212.297,335.674 210.910,335.635 209.111 C 335.597 207.312,335.405 205.647,335.209 205.411 C 335.013 205.175,334.805 203.906,334.746 202.591 C 334.688 201.276,334.503 200.010,334.336 199.779 C 334.169 199.547,334.000 198.067,333.961 196.490 C 333.921 194.912,333.733 193.718,333.544 193.835 C 333.355 193.952,333.200 192.496,333.200 190.600 C 333.200 188.404,333.055 187.242,332.800 187.400 C 332.483 187.596,332.212 183.407,332.434 181.745 C 332.453 181.604,332.284 181.375,332.058 181.236 C 331.832 181.096,331.610 179.687,331.564 178.105 C 331.517 176.522,331.340 175.313,331.170 175.418 C 331.000 175.523,330.762 174.212,330.640 172.505 C 330.166 165.860,329.922 163.786,329.568 163.420 C 329.365 163.211,329.200 161.625,329.200 159.896 C 329.200 157.903,329.054 156.843,328.800 157.000 C 328.549 157.155,328.381 156.193,328.350 154.424 C 328.290 151.031,328.280 150.947,327.900 150.567 C 327.735 150.402,327.600 148.947,327.600 147.333 C 327.600 145.644,327.430 144.400,327.200 144.400 C 326.971 144.400,326.800 143.200,326.800 141.600 C 326.800 140.060,326.646 138.800,326.458 138.800 C 326.271 138.800,326.080 137.409,326.035 135.709 C 325.990 134.009,325.811 132.524,325.637 132.409 C 325.463 132.294,325.196 130.310,325.044 128.000 C 324.891 125.690,324.689 123.170,324.595 122.400 C 324.299 119.989,323.573 114.327,323.160 111.200 C 322.942 109.550,322.667 106.895,322.550 105.300 C 322.433 103.705,322.171 102.400,321.968 102.400 C 321.766 102.400,321.600 101.086,321.600 99.480 C 321.600 97.874,321.438 96.389,321.241 96.180 C 321.043 95.971,320.774 94.540,320.644 93.000 C 320.418 90.335,320.004 86.809,319.189 80.600 C 318.987 79.060,318.663 76.180,318.469 74.200 C 318.103 70.454,316.832 64.400,316.412 64.400 C 316.279 64.400,316.128 63.850,316.077 63.179 C 316.026 62.507,315.610 61.112,315.152 60.079 C 314.695 59.045,314.173 57.840,313.994 57.400 C 313.814 56.960,313.434 56.028,313.149 55.329 C 312.864 54.630,312.488 54.145,312.315 54.252 C 312.142 54.360,312.000 54.097,312.000 53.669 C 312.000 52.668,311.001 50.732,310.661 51.073 C 310.517 51.216,310.400 50.933,310.400 50.443 C 310.400 49.951,310.221 49.663,310.000 49.800 C 309.780 49.936,309.599 49.812,309.597 49.524 C 309.596 49.236,308.786 47.745,307.797 46.212 C 306.809 44.679,306.000 43.314,306.000 43.180 C 306.000 43.045,305.556 42.698,305.014 42.407 C 304.471 42.117,304.122 41.727,304.237 41.540 C 304.353 41.353,304.246 41.200,304.000 41.200 C 303.754 41.200,303.665 41.019,303.802 40.797 C 303.939 40.576,303.769 40.286,303.425 40.154 C 303.081 40.022,302.800 39.653,302.800 39.334 C 302.800 39.014,302.620 38.864,302.400 39.000 C 302.180 39.136,302.000 39.091,302.000 38.899 C 302.000 38.708,301.675 38.202,301.278 37.775 C 300.880 37.349,300.502 36.820,300.438 36.600 C 300.373 36.380,300.145 36.249,299.930 36.310 C 299.716 36.370,299.640 36.259,299.761 36.063 C 299.882 35.867,299.625 35.385,299.191 34.991 C 298.756 34.598,298.397 34.439,298.394 34.638 C 298.391 34.837,298.151 34.550,297.861 34.000 C 297.572 33.450,297.111 33.049,296.838 33.110 C 296.564 33.170,296.440 33.059,296.561 32.863 C 296.682 32.667,296.394 32.168,295.922 31.753 C 295.449 31.339,295.211 31.253,295.393 31.562 C 295.616 31.941,295.573 32.031,295.262 31.838 C 295.008 31.681,294.800 31.322,294.800 31.041 C 294.800 30.759,294.350 30.323,293.800 30.073 C 293.250 29.822,292.800 29.433,292.800 29.209 C 292.800 28.984,292.537 28.800,292.215 28.800 C 291.894 28.800,290.869 28.035,289.937 27.100 C 289.006 26.165,288.380 25.625,288.546 25.900 C 288.711 26.175,288.658 26.400,288.427 26.400 C 288.196 26.400,287.782 26.040,287.507 25.600 C 287.232 25.160,286.781 24.800,286.504 24.800 C 286.227 24.800,286.000 24.620,286.000 24.400 C 286.000 24.180,285.730 24.000,285.400 24.000 C 285.070 24.000,284.800 23.820,284.800 23.600 C 284.800 23.380,284.519 23.200,284.176 23.200 C 283.833 23.200,283.664 23.020,283.800 22.800 C 283.936 22.580,283.692 22.400,283.257 22.400 C 282.822 22.400,282.407 22.265,282.333 22.100 C 282.260 21.935,281.390 21.371,280.400 20.846 C 273.342 17.105,272.340 16.726,271.800 17.600 M311.148 56.246 C 311.410 56.821,311.517 57.631,311.385 58.046 C 311.218 58.575,311.341 58.800,311.800 58.800 C 312.258 58.800,312.382 59.025,312.215 59.553 C 312.060 60.041,312.206 60.394,312.631 60.556 C 313.100 60.736,313.214 61.089,313.035 61.804 C 312.857 62.513,312.947 62.800,313.350 62.800 C 314.034 62.800,314.518 63.880,313.983 64.211 C 313.407 64.567,313.523 65.200,314.165 65.200 C 314.543 65.200,314.690 65.562,314.610 66.294 C 314.531 67.005,314.748 67.569,315.230 67.906 C 315.858 68.346,315.900 68.581,315.508 69.441 C 315.199 70.120,315.180 70.547,315.452 70.729 C 315.967 71.073,316.562 72.474,316.416 73.000 C 316.315 73.363,316.259 73.858,316.063 76.124 C 316.028 76.522,315.828 76.741,315.617 76.611 C 315.407 76.481,315.324 76.143,315.432 75.861 C 315.540 75.578,315.367 74.842,315.046 74.224 C 314.726 73.606,314.559 72.851,314.676 72.545 C 314.794 72.240,314.710 71.767,314.490 71.495 C 314.270 71.223,313.777 69.920,313.395 68.600 C 313.013 67.280,312.565 65.840,312.399 65.400 C 311.815 63.851,311.105 60.181,311.063 58.500 C 311.036 57.410,310.838 56.800,310.511 56.800 C 310.230 56.800,310.000 56.440,310.000 56.000 C 310.000 54.879,310.582 55.004,311.148 56.246 M317.066 78.755 C 317.154 80.478,316.243 80.177,316.071 78.426 C 315.979 77.478,316.090 77.163,316.471 77.290 C 316.762 77.386,317.030 78.046,317.066 78.755 M163.645 252.000 C 163.486 253.374,162.737 262.982,162.397 268.000 C 162.196 270.970,161.830 275.560,161.585 278.200 C 161.340 280.840,161.017 284.980,160.869 287.400 L 160.600 291.800 154.200 292.068 C 143.088 292.532,124.379 293.683,116.400 294.392 C 103.439 295.543,91.194 297.004,87.800 297.804 C 86.480 298.115,82.250 298.927,78.400 299.608 C 74.550 300.289,69.276 301.381,66.680 302.034 C 64.083 302.687,61.812 303.131,61.632 303.020 C 60.481 302.309,48.925 306.949,46.693 309.019 L 45.608 310.025 45.858 307.069 C 45.995 305.444,45.949 304.017,45.754 303.898 C 45.559 303.779,45.360 305.284,45.312 307.241 C 45.219 310.979,45.395 311.338,46.638 309.948 C 48.249 308.147,52.832 305.963,58.357 304.364 C 61.586 303.429,61.600 303.442,61.600 307.077 C 61.600 316.330,64.752 317.764,92.200 320.994 C 95.060 321.331,98.750 321.784,100.400 322.002 C 108.108 323.020,109.784 323.200,111.524 323.200 L 113.389 323.200 111.195 321.730 C 99.362 313.802,85.246 298.072,89.887 297.987 C 90.279 297.980,91.860 297.805,93.400 297.599 C 109.012 295.510,126.304 294.050,147.992 292.991 C 154.918 292.652,160.706 292.246,160.854 292.088 C 161.002 291.929,161.328 288.650,161.578 284.800 C 161.828 280.950,162.196 276.180,162.396 274.200 C 162.595 272.220,162.960 267.630,163.206 264.000 C 163.452 260.370,163.780 256.770,163.935 256.000 C 164.090 255.230,164.104 253.880,163.965 253.000 C 163.827 252.120,163.682 251.670,163.645 252.000 M228.046 254.800 C 228.017 255.570,228.176 257.910,228.401 260.000 C 228.848 264.150,229.845 276.874,230.435 285.945 C 230.640 289.105,230.893 291.826,230.996 291.993 C 231.211 292.342,235.405 292.645,247.800 293.207 C 278.870 294.616,302.887 297.445,321.000 301.830 C 325.793 302.991,326.030 303.087,325.253 303.567 C 324.657 303.936,325.020 308.400,325.646 308.400 C 325.841 308.400,326.003 309.075,326.006 309.900 C 326.010 310.910,326.126 311.220,326.361 310.849 C 326.762 310.216,327.600 310.582,327.600 311.390 C 327.600 311.689,327.375 312.038,327.100 312.167 C 326.700 312.353,326.700 312.447,327.100 312.633 C 327.375 312.762,327.600 313.392,327.600 314.033 C 327.600 314.675,327.780 315.200,328.000 315.200 C 328.220 315.200,328.400 315.920,328.400 316.800 C 328.400 317.680,328.580 318.400,328.800 318.400 C 329.378 318.400,329.293 319.902,328.704 320.099 C 327.996 320.335,329.328 321.602,330.271 321.592 C 332.830 321.562,341.751 318.182,344.027 316.379 C 346.617 314.327,346.958 313.297,346.597 308.616 C 346.427 306.407,346.268 303.613,346.244 302.406 C 346.210 300.733,346.047 300.182,345.558 300.088 C 345.026 299.985,344.941 300.291,345.061 301.882 C 345.319 305.303,345.574 307.380,345.857 308.378 L 346.134 309.356 345.192 308.478 C 344.673 307.995,344.013 307.600,343.725 307.600 C 343.436 307.600,343.200 307.420,343.200 307.200 C 343.200 306.980,342.876 306.800,342.480 306.800 C 342.084 306.800,341.589 306.648,341.380 306.462 C 340.128 305.350,329.465 302.268,321.200 300.629 C 298.191 296.068,273.880 293.583,238.322 292.158 C 230.415 291.841,231.252 292.722,230.761 284.200 C 230.558 280.680,230.226 276.090,230.022 274.000 C 229.819 271.910,229.446 267.230,229.193 263.600 C 228.694 256.438,228.145 252.225,228.046 254.800 " stroke="none" fill="#ba130f" fill-rule="evenodd"></path><path id="path6" d="M183.400 12.459 C 170.660 13.463,157.381 15.922,150.500 18.551 C 149.565 18.908,148.071 19.472,147.181 19.805 C 145.792 20.323,141.978 22.231,139.031 23.881 C 137.697 24.627,134.000 28.659,134.000 29.366 C 134.000 29.715,133.820 30.000,133.600 30.000 C 133.374 30.000,133.200 31.150,133.200 32.650 L 133.200 35.301 136.299 38.476 C 138.003 40.222,139.793 41.865,140.276 42.126 C 143.572 43.908,148.919 46.433,150.600 47.003 C 155.133 48.539,159.139 49.646,161.400 49.987 C 162.720 50.187,165.780 50.711,168.200 51.152 C 193.110 55.694,229.396 52.770,247.000 44.803 C 248.540 44.106,250.360 43.283,251.045 42.975 C 251.730 42.667,252.517 42.141,252.794 41.807 C 253.071 41.473,253.461 41.200,253.660 41.200 C 254.270 41.200,257.600 37.660,257.600 37.011 C 257.600 36.675,257.780 36.400,258.000 36.400 C 258.220 36.400,258.400 36.040,258.400 35.600 C 258.400 35.160,258.580 34.800,258.800 34.800 C 259.020 34.800,259.200 34.080,259.200 33.200 C 259.200 32.320,259.020 31.600,258.800 31.600 C 258.580 31.600,258.400 31.060,258.400 30.400 C 258.400 29.740,258.250 29.200,258.068 29.200 C 257.885 29.200,257.480 28.705,257.168 28.100 C 256.548 26.900,255.010 25.200,254.544 25.200 C 254.383 25.200,253.842 24.815,253.341 24.344 C 252.302 23.369,251.561 22.928,248.200 21.290 C 244.475 19.475,242.917 18.800,242.448 18.800 C 242.211 18.800,240.708 18.364,239.108 17.830 C 225.333 13.238,202.024 10.990,183.400 12.459 M199.000 31.255 C 199.440 31.335,200.044 31.631,200.342 31.914 C 200.695 32.248,201.046 32.294,201.344 32.047 C 201.670 31.776,201.807 31.985,201.817 32.769 C 201.829 33.684,201.676 33.854,200.916 33.771 C 200.412 33.716,200.000 33.816,200.000 33.993 C 200.000 34.170,199.595 34.316,199.100 34.316 C 198.605 34.317,197.341 34.424,196.291 34.554 C 195.093 34.702,193.773 34.580,192.744 34.226 C 191.843 33.915,190.875 33.750,190.593 33.858 C 190.312 33.966,189.945 33.834,189.779 33.565 C 189.585 33.253,189.643 33.179,189.938 33.362 C 190.219 33.535,190.400 33.377,190.400 32.957 C 190.400 31.216,194.417 30.421,199.000 31.255 M66.654 271.500 C 66.438 273.796,66.064 276.509,65.235 281.800 C 64.993 283.340,64.697 285.500,64.577 286.600 C 64.457 287.700,64.199 289.230,64.003 290.000 C 63.807 290.770,63.441 292.840,63.190 294.600 C 62.939 296.360,62.553 298.759,62.332 299.932 C 62.111 301.104,62.024 302.158,62.139 302.272 C 62.392 302.526,66.398 301.254,67.100 300.698 C 67.707 300.217,67.841 269.200,67.236 269.200 C 67.035 269.200,66.774 270.235,66.654 271.500 " stroke="none" fill="#f45056" fill-rule="evenodd"></path><path id="path7" d="M217.600 246.427 C 216.170 246.851,213.332 247.653,211.294 248.211 C 205.720 249.735,205.600 249.798,205.600 251.176 C 205.600 253.428,202.712 253.814,201.962 251.662 L 201.592 250.600 195.906 250.631 C 190.238 250.662,190.221 250.665,189.993 251.628 C 189.461 253.883,186.000 253.306,186.000 250.962 C 186.000 249.766,186.434 249.942,178.317 247.836 C 166.193 244.690,164.000 245.515,164.000 253.220 C 164.000 261.369,200.822 265.115,220.000 258.917 C 227.882 256.370,229.473 253.683,226.664 247.666 C 225.665 245.525,222.230 245.056,217.600 246.427 M316.600 325.832 C 297.781 329.192,271.577 331.587,238.200 332.997 C 212.360 334.089,154.717 333.639,136.800 332.206 C 135.370 332.091,129.970 331.722,124.800 331.385 C 115.798 330.797,102.645 329.648,95.000 328.780 C 85.102 327.657,78.030 326.744,76.494 326.392 C 73.919 325.800,72.601 325.915,71.800 326.800 C 71.402 327.240,70.886 327.600,70.653 327.600 C 70.190 327.600,66.800 330.800,66.800 331.238 C 66.800 331.387,67.295 331.607,67.900 331.727 C 68.505 331.846,71.070 332.418,73.600 332.997 C 89.813 336.706,154.393 343.053,153.000 340.800 C 152.851 340.559,150.070 340.400,146.000 340.400 C 141.930 340.400,139.149 340.241,139.000 340.000 C 138.856 339.767,136.604 339.600,133.600 339.600 C 130.596 339.600,128.344 339.433,128.200 339.200 C 128.064 338.979,126.126 338.786,123.876 338.768 C 119.112 338.732,119.194 338.646,124.800 337.799 C 135.841 336.130,142.155 335.512,147.949 335.532 C 149.847 335.539,152.570 335.387,154.000 335.196 C 155.430 335.004,175.637 334.804,198.904 334.750 C 222.906 334.695,240.991 334.503,240.704 334.306 C 240.153 333.927,242.588 334.102,246.800 334.745 C 248.230 334.963,251.470 335.240,254.000 335.361 C 262.054 335.746,265.286 336.040,270.000 336.815 C 272.530 337.231,275.815 337.692,277.300 337.841 C 281.311 338.241,280.568 338.800,276.024 338.800 C 273.439 338.800,271.947 338.962,271.760 339.264 C 270.869 340.706,313.723 335.780,326.400 332.983 C 328.930 332.425,331.495 331.865,332.100 331.739 C 333.623 331.421,333.535 331.227,330.700 328.646 C 327.160 325.424,326.868 325.200,326.224 325.200 C 325.907 325.200,325.536 325.020,325.400 324.800 C 325.085 324.290,325.513 324.240,316.600 325.832 M260.800 339.940 C 260.800 340.248,266.445 340.129,267.400 339.801 C 267.620 339.725,266.225 339.649,264.300 339.632 C 262.375 339.614,260.800 339.753,260.800 339.940 M247.054 340.713 C 246.947 340.885,248.692 340.967,250.930 340.895 C 256.858 340.704,257.280 340.517,251.924 340.454 C 249.352 340.425,247.160 340.541,247.054 340.713 M155.800 341.472 C 161.578 341.755,172.309 341.774,172.139 341.500 C 172.037 341.335,167.778 341.235,162.676 341.277 C 157.574 341.319,154.480 341.407,155.800 341.472 M227.459 341.505 C 227.355 341.673,229.279 341.756,231.735 341.690 C 238.376 341.510,238.881 341.328,232.924 341.260 C 230.022 341.227,227.562 341.337,227.459 341.505 " stroke="none" fill="#a38a8c" fill-rule="evenodd"></path><path id="path8" d="M186.305 261.883 C 186.802 261.979,187.522 261.975,187.905 261.875 C 188.287 261.775,187.880 261.696,187.000 261.701 C 186.120 261.705,185.807 261.787,186.305 261.883 M204.705 261.883 C 205.202 261.979,205.922 261.975,206.305 261.875 C 206.687 261.775,206.280 261.696,205.400 261.701 C 204.520 261.705,204.207 261.787,204.705 261.883 M189.705 262.287 C 190.314 262.379,191.214 262.377,191.705 262.282 C 192.197 262.187,191.700 262.111,190.600 262.114 C 189.500 262.117,189.097 262.195,189.705 262.287 M200.100 262.287 C 200.705 262.378,201.695 262.378,202.300 262.287 C 202.905 262.195,202.410 262.120,201.200 262.120 C 199.990 262.120,199.495 262.195,200.100 262.287 M346.400 302.200 C 346.400 302.750,346.469 303.200,346.553 303.200 C 346.638 303.200,346.793 302.750,346.898 302.200 C 347.003 301.650,346.934 301.200,346.745 301.200 C 346.555 301.200,346.400 301.650,346.400 302.200 M346.901 305.400 C 346.905 306.280,346.987 306.593,347.083 306.095 C 347.179 305.598,347.175 304.878,347.075 304.495 C 346.975 304.113,346.896 304.520,346.901 305.400 M347.487 310.725 C 348.012 316.520,342.557 319.759,325.200 323.959 C 323.330 324.411,322.554 324.695,323.476 324.590 C 324.398 324.484,325.263 324.579,325.399 324.799 C 325.536 325.020,325.907 325.200,326.224 325.200 C 326.868 325.200,327.160 325.424,330.700 328.646 C 333.535 331.227,333.623 331.421,332.100 331.739 C 331.495 331.865,328.930 332.424,326.400 332.981 C 320.398 334.302,302.178 336.910,290.800 338.076 C 285.850 338.583,282.201 339.056,282.691 339.126 C 283.531 339.246,296.412 338.050,303.400 337.203 C 314.196 335.894,320.210 335.102,323.200 334.594 C 325.070 334.277,329.390 333.566,332.800 333.013 C 338.509 332.089,342.953 330.921,350.800 328.281 C 362.883 324.216,365.677 318.850,357.400 315.606 C 350.053 312.727,348.001 311.530,348.001 310.124 C 348.000 309.422,347.837 308.747,347.638 308.623 C 347.429 308.494,347.365 309.382,347.487 310.725 M44.401 314.235 C 44.400 314.898,43.927 315.223,42.100 315.814 C 35.974 317.795,36.744 322.362,43.788 325.832 C 52.401 330.074,86.242 337.303,102.629 338.402 C 105.527 338.596,109.766 338.938,112.049 339.162 C 118.307 339.775,137.309 340.916,138.210 340.733 C 138.644 340.644,134.590 340.265,129.200 339.890 C 108.758 338.467,84.201 335.422,73.600 332.997 C 71.070 332.418,68.505 331.846,67.900 331.727 C 67.295 331.607,66.800 331.401,66.800 331.270 C 66.800 330.828,70.161 327.600,70.621 327.600 C 70.871 327.600,71.402 327.240,71.800 326.800 C 72.601 325.914,73.923 325.800,76.494 326.394 C 78.747 326.914,88.804 328.129,89.026 327.908 C 89.121 327.812,86.904 327.420,84.099 327.036 C 81.295 326.652,78.280 326.187,77.400 326.001 C 76.520 325.816,74.720 325.461,73.400 325.212 C 57.161 322.148,47.535 318.535,45.137 314.603 C 44.510 313.575,44.403 313.521,44.401 314.235 M90.305 328.283 C 90.802 328.379,91.522 328.375,91.905 328.275 C 92.287 328.175,91.880 328.096,91.000 328.101 C 90.120 328.105,89.807 328.187,90.305 328.283 M272.400 339.600 L 267.400 339.838 272.400 339.879 C 275.150 339.902,278.390 339.784,279.600 339.617 L 281.800 339.313 279.600 339.337 C 278.390 339.351,275.150 339.469,272.400 339.600 M259.200 340.400 C 256.435 340.636,256.576 340.659,261.000 340.700 C 263.640 340.724,266.160 340.589,266.600 340.400 C 267.532 339.999,263.897 339.999,259.200 340.400 M143.400 341.230 C 143.840 341.403,146.360 341.542,149.000 341.540 C 151.640 341.538,153.620 341.475,153.400 341.399 C 152.541 341.102,142.648 340.936,143.400 341.230 M243.000 341.200 L 237.800 341.437 242.400 341.466 C 244.930 341.482,249.070 341.370,251.600 341.217 L 256.200 340.938 252.200 340.951 C 250.000 340.958,245.860 341.070,243.000 341.200 M162.526 342.086 C 162.787 342.252,177.670 342.364,195.600 342.334 C 213.530 342.304,227.750 342.224,227.200 342.155 C 224.955 341.875,162.088 341.808,162.526 342.086 M230.716 341.897 C 232.099 341.975,234.259 341.974,235.516 341.895 C 236.772 341.816,235.640 341.752,233.000 341.753 C 230.360 341.753,229.332 341.818,230.716 341.897 " stroke="none" fill="#6c6c6c" fill-rule="evenodd"></path></g></svg>