<?xml version="1.0" standalone="no"?>
<!DOCTYPE svg PUBLIC "-//W3C//DTD SVG 20010904//EN"
 "http://www.w3.org/TR/2001/REC-SVG-20010904/DTD/svg10.dtd">
<svg version="1.0" xmlns="http://www.w3.org/2000/svg"
 width="512.000000pt" height="512.000000pt" viewBox="0 0 512.000000 512.000000"
 preserveAspectRatio="xMidYMid meet">

<g transform="translate(0.000000,512.000000) scale(0.100000,-0.100000)"
fill="#000000" stroke="none">
<path d="M2340 5114 c-317 -28 -589 -98 -810 -209 -277 -138 -488 -366 -549
-592 -6 -23 -40 -273 -76 -555 -210 -1679 -316 -2514 -320 -2524 -2 -7 -25
-20 -52 -29 -69 -26 -128 -65 -148 -97 -13 -23 -23 -28 -55 -28 -37 0 -40 -2
-49 -37 -5 -21 -46 -182 -91 -358 -45 -176 -86 -324 -91 -330 -5 -5 -9 -20 -9
-32 0 -235 1998 -396 3567 -288 483 34 958 98 1153 156 136 41 219 90 220 129
0 15 -5 31 -10 36 -6 6 -51 157 -101 335 -116 420 -105 389 -137 389 -19 0
-36 11 -56 36 -32 40 -110 81 -222 116 -68 21 -74 25 -79 53 -7 40 -250 1986
-315 2520 -53 441 -64 492 -128 620 -50 101 -108 179 -203 271 -215 209 -537
347 -925 399 -116 16 -425 27 -514 19z m395 -317 c61 -17 92 -32 123 -60 30
-28 28 -45 -10 -79 -111 -99 -520 -104 -675 -8 -25 15 -32 26 -31 47 1 16 8
36 16 45 18 21 103 54 163 63 24 4 46 9 49 12 10 11 316 -6 365 -20z m365
-476 c0 -12 -64 -20 -265 -31 -223 -13 -418 -12 -667 1 -297 15 -283 33 22 27
201 -4 641 1 863 10 26 1 47 -2 47 -7z m-388 -895 c96 -24 204 -73 268 -120
60 -45 161 -149 200 -206 178 -261 193 -586 41 -862 -64 -116 -184 -243 -276
-291 -30 -16 -35 -24 -35 -53 0 -43 -32 -65 -134 -91 -103 -26 -430 -26 -534
1 -97 25 -136 51 -140 97 -2 27 -9 37 -30 47 -50 22 -158 118 -210 188 -66 88
-116 189 -143 290 -34 121 -31 317 5 437 74 246 221 413 462 523 99 45 187 62
320 63 87 1 133 -4 206 -23z m1580 -2521 c9 -11 15 -21 14 -22 -7 -7 -211 -44
-341 -62 -209 -28 -430 -48 -705 -63 -295 -16 -1251 -16 -1480 1 -374 27 -674
62 -869 102 -51 10 -96 19 -100 19 -3 0 13 18 37 40 l42 40 78 -15 c350 -63
893 -98 1537 -98 688 1 1228 37 1588 107 l112 22 35 -25 c19 -15 42 -35 52
-46z"/>
</g>
</svg>
